<?xml version="1.0" standalone="no"?>
<!DOCTYPE svg PUBLIC "-//W3C//DTD SVG 20010904//EN"
 "http://www.w3.org/TR/2001/REC-SVG-20010904/DTD/svg10.dtd">
<svg version="1.0" xmlns="http://www.w3.org/2000/svg"
 width="900.000000pt" height="321.000000pt" viewBox="0 0 900.000000 321.000000"
 preserveAspectRatio="xMidYMid meet">
<metadata>
Created by potrace 1.10, written by Peter Selinger 2001-2011
</metadata>
<g transform="translate(0.000000,321.000000) scale(0.100000,-0.100000)"
fill="#ffffff" stroke="none">
<path d="M21 3166 c-9 -10 -9 -16 -1 -21 17 -10 37 12 24 25 -8 8 -15 6 -23
-4z"/>
<path d="M1416 2651 c-4 -6 -2 -26 5 -45 19 -53 -8 -121 -220 -561 -85 -176
-84 -174 -111 -245 -11 -30 -27 -68 -34 -85 -41 -88 -73 -185 -121 -360 -32
-119 -48 -303 -35 -395 4 -31 2 -35 -20 -38 -20 -2 -30 6 -51 40 -14 24 -34
69 -44 101 -22 71 -40 75 -32 8 10 -87 52 -170 115 -229 57 -53 118 -92 145
-92 8 0 20 7 27 15 8 9 18 12 29 6 24 -11 113 -1 108 13 -2 6 -26 13 -53 16
-41 4 -49 8 -47 24 1 11 -5 26 -13 34 -8 8 -13 22 -10 31 2 9 8 50 11 91 10
104 66 317 111 417 8 17 14 36 14 42 0 6 4 19 9 29 5 9 21 43 36 74 15 33 34
60 46 63 11 4 55 27 97 51 86 50 84 48 167 101 56 35 65 37 140 37 68 0 89 -4
138 -28 131 -65 179 -164 153 -321 -32 -195 -129 -332 -308 -435 -43 -25 -78
-48 -78 -52 0 -13 29 -9 62 8 17 9 34 12 39 7 9 -9 -35 -63 -52 -63 -5 0 -35
-17 -67 -38 -53 -35 -127 -62 -171 -62 -10 0 -29 -9 -42 -19 -16 -12 -50 -22
-94 -26 -39 -4 -75 -12 -82 -17 -7 -5 -33 -8 -59 -6 -63 4 -70 -17 -8 -26 59
-8 232 -6 304 3 30 4 65 15 77 25 30 26 90 47 143 50 53 3 108 30 210 105 140
101 237 227 279 362 36 115 34 333 -3 404 -9 17 -16 35 -16 40 0 6 -16 30 -36
55 -38 48 -138 110 -179 110 -13 0 -35 4 -50 10 -26 10 -26 10 -8 35 10 13 26
27 36 31 36 12 162 149 189 204 44 93 48 108 48 193 0 66 -5 89 -23 121 -31
55 -83 94 -150 111 -85 22 -107 20 -242 -20 -14 -4 -29 1 -45 18 -50 48 -111
79 -170 84 -37 4 -60 2 -64 -6z m457 -200 l42 -40 0 -84 c0 -73 -4 -91 -30
-143 -36 -71 -143 -181 -238 -243 -37 -24 -67 -47 -67 -52 0 -4 -17 -11 -37
-15 -21 -4 -57 -15 -81 -26 -57 -24 -62 -23 -62 8 0 25 174 376 239 480 17 28
31 56 31 62 0 27 27 66 55 78 58 25 101 18 148 -25z"/>
<path d="M4590 2618 c0 -9 7 -29 15 -44 19 -36 19 -120 2 -176 -8 -24 -24 -77
-36 -118 -13 -41 -29 -88 -36 -105 -22 -51 -32 -77 -71 -185 -20 -58 -41 -109
-46 -114 -4 -6 -8 -16 -8 -24 0 -8 -6 -28 -14 -45 -41 -90 -56 -127 -56 -136
0 -25 -79 -69 -245 -134 -83 -33 -82 -34 -105 93 -24 134 -82 219 -184 269
-65 32 -68 32 -178 28 -133 -4 -181 -16 -265 -63 -99 -55 -151 -132 -162 -238
l-6 -60 -60 -23 c-33 -13 -71 -22 -85 -21 -23 3 -25 8 -32 71 -15 150 -77 249
-194 307 -62 30 -67 31 -176 27 -165 -6 -248 -32 -324 -104 -60 -56 -81 -92
-95 -158 -10 -52 -10 -68 5 -120 10 -32 24 -68 31 -79 12 -16 12 -24 -2 -55
-31 -73 -63 -213 -70 -310 -10 -146 49 -290 147 -356 41 -27 52 -30 120 -28
47 0 86 7 105 17 17 9 34 16 39 16 24 0 196 150 196 171 0 4 6 14 14 21 7 8
23 32 35 54 12 21 25 46 30 54 48 78 81 140 81 153 0 9 6 31 14 49 8 18 22 59
32 91 10 31 23 57 29 57 5 0 50 20 99 44 88 44 88 44 108 24 18 -18 18 -22 5
-51 -19 -42 -42 -116 -63 -205 -29 -122 -10 -285 43 -370 55 -89 117 -126 208
-125 145 1 269 89 387 273 73 115 110 190 138 280 36 121 32 116 127 161 48
23 102 52 119 65 35 27 74 32 74 10 0 -8 -4 -17 -9 -21 -5 -3 -12 -19 -16 -36
-4 -17 -13 -42 -21 -57 -8 -15 -14 -34 -14 -42 0 -9 -4 -20 -8 -25 -5 -6 -25
-62 -46 -125 -90 -284 -93 -298 -78 -356 17 -64 46 -98 112 -133 75 -40 93
-34 84 25 -6 42 10 133 41 229 7 22 20 65 30 95 36 118 61 154 79 118 3 -7 15
-26 26 -43 11 -16 23 -37 27 -45 13 -28 95 -144 161 -229 102 -131 321 -359
413 -430 47 -36 256 -141 282 -141 8 0 17 -6 20 -14 4 -9 14 -12 25 -9 27 7
65 -15 58 -33 -9 -23 36 -34 132 -33 131 0 272 31 280 61 4 18 38 44 82 65
l25 11 -25 1 c-15 1 -31 -4 -37 -10 -6 -6 -65 -11 -149 -12 -193 -3 -290 24
-424 117 -112 78 -279 265 -371 416 -18 30 -57 88 -86 127 -29 40 -53 76 -53
79 0 3 -13 23 -29 43 -53 67 -121 172 -121 186 0 8 23 25 51 39 203 103 329
253 329 394 0 67 -14 104 -50 137 -19 17 -36 20 -109 19 -72 0 -93 -4 -132
-25 -44 -25 -69 -27 -69 -8 0 6 9 31 21 57 22 50 45 104 59 137 4 11 15 40 23
65 45 134 52 168 52 260 0 86 -3 99 -26 135 -57 87 -107 123 -179 132 -41 5
-50 3 -50 -9z m-1075 -829 c-10 -32 -125 -129 -152 -129 -48 0 48 121 111 139
46 13 48 13 41 -10z m-975 -3 c0 -7 -15 -25 -32 -39 -18 -14 -53 -50 -78 -80
-25 -31 -53 -56 -64 -57 -16 0 -17 5 -11 38 9 47 43 90 105 129 39 26 80 30
80 9z m2338 -59 c10 -86 -148 -266 -300 -343 -96 -49 -108 -28 -54 88 63 133
239 289 321 285 25 -2 31 -7 33 -30z m-1992 -103 c19 -45 15 -144 -6 -155 -36
-18 -140 -39 -205 -41 -56 -3 -70 0 -73 13 -7 36 205 218 256 219 7 0 20 -16
28 -36z m975 5 c13 -44 10 -159 -3 -163 -147 -42 -265 -55 -274 -32 -8 20 57
99 121 148 28 21 55 42 60 47 15 12 68 30 80 27 5 -1 12 -13 16 -27z m-991
-311 c0 -12 -7 -43 -16 -68 -30 -84 -35 -96 -86 -193 -11 -21 -55 -73 -97
-115 -57 -58 -87 -81 -120 -91 -91 -27 -137 31 -128 161 8 104 19 149 62 233
l37 75 102 1 c55 1 115 5 131 9 17 4 49 8 73 9 37 1 42 -2 42 -21z m975 -15
c-23 -126 -99 -265 -200 -368 -57 -58 -79 -74 -117 -83 -56 -14 -89 -3 -109
36 -18 33 -17 208 1 254 29 72 53 124 72 151 19 26 23 27 116 28 53 1 111 5
127 9 17 4 50 8 74 9 l43 1 -7 -37z"/>
<path d="M5820 2560 c-67 -15 -114 -42 -168 -98 -94 -98 -140 -167 -228 -342
-24 -48 -32 -67 -88 -205 -20 -49 -41 -98 -46 -107 -6 -10 -10 -23 -10 -30 0
-7 -6 -24 -13 -38 -7 -14 -21 -47 -31 -75 -10 -27 -24 -63 -31 -80 -28 -65
-74 -204 -95 -288 -19 -74 -22 -107 -18 -220 2 -72 9 -141 15 -152 5 -11 19
-38 29 -60 26 -53 60 -92 105 -121 32 -20 52 -24 113 -24 41 0 77 4 80 9 3 5
18 12 32 15 43 11 133 78 229 169 50 48 96 86 102 87 7 0 15 -12 19 -27 26
-118 65 -191 124 -228 104 -66 270 8 406 180 21 27 45 56 52 63 6 7 12 18 12
23 0 5 8 9 19 9 15 0 21 -12 31 -67 28 -158 109 -240 229 -230 84 7 138 24
197 63 51 34 157 124 201 171 37 38 73 26 73 -24 0 -30 44 -103 84 -141 53
-49 116 -72 196 -72 95 0 197 45 286 127 17 15 69 61 115 102 46 41 97 88 112
105 32 35 67 98 67 119 0 19 -39 67 -54 67 -7 0 -28 -21 -46 -46 -46 -65 -223
-241 -291 -292 -32 -22 -69 -44 -83 -48 -14 -3 -29 -10 -32 -15 -10 -17 -71
-9 -104 13 -49 33 -68 73 -69 141 -1 88 17 136 59 155 75 32 178 86 230 121
70 46 200 176 222 221 36 75 46 107 52 157 9 72 1 94 -42 123 -20 14 -46 33
-56 42 -11 10 -46 34 -78 53 -67 40 -122 46 -165 18 -42 -27 -149 -138 -204
-211 -79 -104 -199 -363 -199 -430 0 -44 -39 -97 -142 -197 -194 -188 -243
-225 -298 -225 -89 1 -84 103 16 316 18 38 85 157 148 263 64 106 118 209 122
228 4 19 4 53 1 76 -8 58 -82 126 -179 161 -38 14 -71 26 -72 26 -2 0 -6 -24
-9 -54 -3 -29 -10 -62 -15 -72 -5 -11 -20 -41 -32 -69 -13 -27 -42 -79 -65
-115 -67 -102 -100 -154 -105 -165 -6 -11 -115 -179 -196 -300 -105 -157 -197
-254 -244 -255 -51 -1 -50 84 0 205 38 91 88 190 125 250 25 40 45 75 45 79 0
3 10 23 23 44 13 20 39 73 58 117 28 65 34 93 34 149 0 67 -1 68 -40 101 -21
19 -60 43 -85 55 -25 12 -53 25 -62 31 -10 5 -31 9 -48 9 l-30 0 0 -62 c0 -34
-8 -83 -17 -108 -21 -57 -105 -215 -160 -302 -12 -21 -23 -41 -23 -44 0 -7
-31 -77 -58 -129 -56 -110 -272 -321 -404 -393 -95 -52 -146 -33 -167 61 -9
38 13 193 44 302 9 33 21 79 27 103 7 24 28 75 47 115 29 57 42 73 66 80 76
24 285 211 386 347 27 36 52 70 57 75 12 15 102 165 102 170 0 3 14 33 30 67
35 73 56 170 46 220 -4 24 -20 48 -46 72 -86 78 -149 102 -220 86z m165 -143
c4 -13 1 -35 -4 -51 -6 -15 -11 -36 -11 -48 0 -11 -7 -36 -16 -56 -95 -210
-168 -324 -289 -447 -84 -85 -145 -127 -145 -98 0 44 221 495 314 641 26 41
73 87 96 94 22 8 49 -9 55 -35z m1853 -740 c5 -26 -33 -96 -78 -145 -98 -105
-300 -227 -300 -182 0 38 201 258 290 319 49 33 83 36 88 8z"/>
<path d="M1543 943 c-7 -2 -13 -9 -13 -15 0 -14 43 -6 48 10 4 12 -12 15 -35
5z"/>
<path d="M1190 814 c0 -9 5 -14 12 -12 18 6 21 28 4 28 -9 0 -16 -7 -16 -16z"/>
<path d="M6023 382 c-18 -9 -33 -19 -33 -24 0 -13 28 -9 44 7 8 8 19 15 25 15
6 0 11 5 11 10 0 12 -7 11 -47 -8z"/>
</g>
</svg>
