<svg width="161" height="38" viewBox="0 0 161 38" fill="none" xmlns="http://www.w3.org/2000/svg">
<path d="M54.9515 10.784C54.9515 12.344 54.5915 13.664 53.8715 14.744C53.1515 15.8 51.9875 16.328 50.3795 16.328C48.7715 16.328 47.5835 15.824 46.8155 14.816C46.0475 13.808 45.6635 12.584 45.6635 11.144C45.6635 8.792 46.7795 6.92 49.0115 5.528C51.2435 4.136 54.7955 3.44 59.6675 3.44C68.1395 3.44 72.3755 5.888 72.3755 10.784C72.3755 13.232 71.2355 14.96 68.9555 15.968C70.3475 16.448 71.4515 17.24 72.2675 18.344C73.0835 19.424 73.4915 20.732 73.4915 22.268C73.4915 24.332 72.7595 26.036 71.2955 27.38C69.8315 28.7 67.6955 29.36 64.8875 29.36C64.3595 29.36 63.1355 29.3 61.2155 29.18C59.2955 29.06 57.7595 29 56.6075 29H53.1155V26.3H56.6075V6.248C53.6795 6.464 51.6035 6.98 50.3795 7.796C49.1555 8.612 48.5435 9.728 48.5435 11.144C48.5435 11.864 48.6995 12.464 49.0115 12.944C49.3235 13.4 49.7795 13.628 50.3795 13.628C51.5075 13.628 52.0715 12.68 52.0715 10.784H54.9515ZM61.4675 17.588V14.888H65.0315C66.2555 14.888 67.2755 14.528 68.0915 13.808C68.9075 13.088 69.3155 12.08 69.3155 10.784C69.3155 9.2 68.5835 8.036 67.1195 7.292C65.6555 6.524 63.1715 6.14 59.6675 6.14V26.408C62.6435 26.576 64.5635 26.66 65.4275 26.66C66.9395 26.66 68.1515 26.264 69.0635 25.472C69.9755 24.656 70.4315 23.528 70.4315 22.088C70.4315 20.648 69.9635 19.544 69.0275 18.776C68.1155 17.984 66.9155 17.588 65.4275 17.588H61.4675ZM77.9718 26.732C76.4598 24.956 75.7038 22.712 75.7038 20C75.7038 17.288 76.4598 15.056 77.9718 13.304C79.4838 11.528 81.6078 10.64 84.3438 10.64C87.0798 10.64 89.2038 11.528 90.7158 13.304C92.2278 15.056 92.9838 17.288 92.9838 20C92.9838 22.712 92.2278 24.956 90.7158 26.732C89.2038 28.484 87.0798 29.36 84.3438 29.36C81.6078 29.36 79.4838 28.484 77.9718 26.732ZM80.2398 15.212C79.2558 16.46 78.7638 18.056 78.7638 20C78.7638 21.944 79.2558 23.54 80.2398 24.788C81.2238 26.036 82.5918 26.66 84.3438 26.66C86.0958 26.66 87.4638 26.036 88.4478 24.788C89.4318 23.54 89.9238 21.944 89.9238 20C89.9238 18.056 89.4318 16.46 88.4478 15.212C87.4638 13.964 86.0958 13.34 84.3438 13.34C82.5918 13.34 81.2238 13.964 80.2398 15.212ZM97.2248 26.732C95.7128 24.956 94.9568 22.712 94.9568 20C94.9568 17.288 95.7128 15.056 97.2248 13.304C98.7368 11.528 100.861 10.64 103.597 10.64C106.333 10.64 108.457 11.528 109.969 13.304C111.481 15.056 112.237 17.288 112.237 20C112.237 22.712 111.481 24.956 109.969 26.732C108.457 28.484 106.333 29.36 103.597 29.36C100.861 29.36 98.7368 28.484 97.2248 26.732ZM99.4928 15.212C98.5088 16.46 98.0168 18.056 98.0168 20C98.0168 21.944 98.5088 23.54 99.4928 24.788C100.477 26.036 101.845 26.66 103.597 26.66C105.349 26.66 106.717 26.036 107.701 24.788C108.685 23.54 109.177 21.944 109.177 20C109.177 18.056 108.685 16.46 107.701 15.212C106.717 13.964 105.349 13.34 103.597 13.34C101.845 13.34 100.477 13.964 99.4928 15.212ZM119.142 26.66H121.914V29H113.31V26.66H116.082V4.34H113.31V2H119.142V18.884L121.338 18.092L125.586 13.34H124.254V11H131.022V13.34H129.474L123.786 19.532L129.51 26.84H132.246V28.352C131.718 28.664 131.25 28.88 130.842 29C130.434 29.12 129.786 29.18 128.898 29.18C128.01 29.18 127.218 28.724 126.522 27.812L121.338 21.008L119.142 21.8V26.66ZM132.467 4.34V2H138.299V26.66H141.431V29H132.431V26.66H135.239V4.34H132.467ZM142.148 13.34V11H148.952V13.34H147.656L151.688 25.544L155.468 13.34H153.812V11H160.292V13.34H158.6L153.38 29C152.468 31.664 151.46 33.68 150.356 35.048C149.252 36.44 147.716 37.136 145.748 37.136C144.62 37.136 143.42 36.92 142.148 36.488L143.012 33.968C143.996 34.256 144.836 34.4 145.532 34.4C147.596 34.4 149.18 32.768 150.284 29.504L144.38 13.34H142.148Z" fill="white"/>
<path fill-rule="evenodd" clip-rule="evenodd" d="M20.8993 2.96289H2.38419e-05L8.79974 9.63504H29.699L20.8993 2.96289ZM8.79973 9.63505V25.4814L1.52588e-05 18.8093V2.96289L8.79973 9.63505Z" fill="#CCCCCC"/>
<path fill-rule="evenodd" clip-rule="evenodd" d="M8.7997 25.4814L29.699 25.4814L20.8993 18.8093L-9.53674e-06 18.8093L8.7997 25.4814ZM20.8993 18.8093L20.8993 2.96292L29.699 9.63508L29.699 25.4814L20.8993 18.8093Z" fill="black"/>
</svg>
